<svg width="357" height="711" viewBox="0 0 357 711" fill="none" xmlns="http://www.w3.org/2000/svg">
<g filter="url(#filter0_ii)">
<path d="M2.70453 77.8106C2.70453 50.5743 2.70453 36.9562 8.00249 26.5533C12.6627 17.4027 20.0988 9.963 29.245 5.30053C39.6428 0 53.2544 0 80.4774 0H276.523C303.746 0 317.357 0 327.755 5.30053C336.901 9.963 344.337 17.4027 348.997 26.5533C354.295 36.9562 354.295 50.5743 354.295 77.8106V632.712C354.295 659.948 354.295 673.567 348.997 683.969C344.337 693.12 336.901 700.56 327.755 705.222C317.357 710.523 303.746 710.523 276.523 710.523H80.4774C53.2543 710.523 39.6428 710.523 29.245 705.222C20.0988 700.56 12.6627 693.12 8.00249 683.969C2.70453 673.567 2.70453 659.948 2.70453 632.712V77.8106Z" fill="#F2F2F2"/>
</g>
<path d="M24.3409 68.6992C24.3409 52.0905 24.3409 43.7861 27.5753 37.4423C30.4203 31.8623 34.9601 27.3255 40.5438 24.4823C46.8917 21.25 55.2015 21.25 71.8212 21.25H285.565C302.185 21.25 310.495 21.25 316.842 24.4823C322.426 27.3255 326.966 31.8623 329.811 37.4423C333.045 43.7861 333.045 52.0905 333.045 68.6993V641.823C333.045 658.432 333.045 666.737 329.811 673.08C326.966 678.66 322.426 683.197 316.842 686.04C310.495 689.273 302.185 689.273 285.565 689.273H71.8212C55.2015 689.273 46.8917 689.273 40.5438 686.04C34.9601 683.197 30.4203 678.66 27.5753 673.08C24.3409 666.737 24.3409 658.432 24.3409 641.823V68.6992Z" fill="url(#paint0_linear)"/>
<g filter="url(#filter1_i)">
<path d="M0 98.1329C0 96.6412 1.21087 95.4319 2.70455 95.4319V124.409C1.21087 124.409 0 123.2 0 121.708V98.1329Z" fill="white"/>
</g>
<g filter="url(#filter2_i)">
<path d="M0 149.138C0 147.643 1.21087 146.432 2.70455 146.432V198.591C1.21087 198.591 0 197.379 0 195.885V149.138Z" fill="white"/>
</g>
<g filter="url(#filter3_i)">
<path d="M0 214.413C0 212.93 1.21087 211.727 2.70455 211.727V263.5C1.21087 263.5 0 262.297 0 260.814V214.413Z" fill="white"/>
</g>
<g filter="url(#filter4_i)">
<path d="M357 166.459C357 165.001 355.789 163.818 354.295 163.818V246.5C355.789 246.5 357 245.317 357 243.859V166.459Z" fill="white"/>
</g>
<path fill-rule="evenodd" clip-rule="evenodd" d="M183.615 342.25H88.0909C90.8596 342.417 92.4405 344.324 92.6135 346.798V350.126C92.6135 359.646 100.357 367.364 109.91 367.364H183.615H186.839H247.476C257.029 367.364 264.773 359.646 264.773 350.126V346.798C264.946 344.324 266.527 342.417 269.295 342.25H186.839H183.615Z" fill="#F2F2F2"/>
<path d="M156.477 28.7981C156.477 27.19 157.829 25.8865 159.496 25.8865H197.504C199.171 25.8865 200.523 27.19 200.523 28.7981V29.1567C200.523 30.7647 199.171 32.0683 197.504 32.0683H159.496C157.829 32.0683 156.477 30.7647 156.477 29.1567V28.7981Z" fill="#EAEAEA"/>
<path d="M221 28.9773C221 31.7513 218.751 34 215.977 34C213.203 34 210.955 31.7513 210.955 28.9773C210.955 26.2033 213.203 23.9546 215.977 23.9546C218.751 23.9546 221 26.2033 221 28.9773Z" fill="#C4C4C4"/>
<path fill-rule="evenodd" clip-rule="evenodd" d="M183.615 21.25H88.0909C90.8596 21.4167 92.4405 23.3239 92.6135 25.7985V29.1262C92.6135 38.6462 100.357 46.3636 109.91 46.3636H183.615H186.839H247.476C257.029 46.3636 264.773 38.6462 264.773 29.1262V25.7985C264.946 23.3239 266.527 21.4167 269.295 21.25H186.839H183.615Z" fill="#F2F2F2"/>
<path d="M219.068 28.9774C219.068 30.6844 217.684 32.0683 215.977 32.0683C214.27 32.0683 212.886 30.6844 212.886 28.9774C212.886 27.2703 214.27 25.8865 215.977 25.8865C217.684 25.8865 219.068 27.2703 219.068 28.9774Z" fill="url(#paint1_radial)"/>
<mask id="mask0" mask-type="alpha" maskUnits="userSpaceOnUse" x="156" y="25" width="45" height="8">
<path d="M156.477 28.7978C156.477 27.1898 157.829 25.8862 159.496 25.8862H197.504C199.171 25.8862 200.523 27.1898 200.523 28.7978V29.1565C200.523 30.7645 199.171 32.068 197.504 32.068H159.496C157.829 32.068 156.477 30.7645 156.477 29.1565V28.7978Z" fill="#EAEAEA"/>
</mask>
<g mask="url(#mask0)">
<path fill-rule="evenodd" clip-rule="evenodd" d="M142.273 25.8862H141.409V32.0679H141.409L141.409 32.068L210.954 32.068L210.955 32.0679L210.954 25.8862H210.091H208.665H207.802H206.376H205.512H204.086H203.223H201.797H200.933H199.507H198.644H197.218H196.355H194.929H194.065H192.639H191.776H190.35H189.486H188.061H187.197H185.771H184.908H183.482H182.618H181.192H180.329H178.903H178.039H176.614H175.75H174.324H173.461H172.035H171.171H169.745H168.882H167.456H166.592H165.167H164.303H162.877H162.014H160.588H159.724H158.298H157.435H156.009H155.145H153.72H152.856H151.43H150.567H149.141H148.277H146.851H145.988H144.562H143.698L142.273 25.8862V25.8862ZM210.091 27.1419H208.665V28.3494H210.091V27.1419ZM210.091 29.605H208.665V30.8124H210.091V29.605ZM207.802 29.605V30.8124H206.376V29.605H207.802ZM207.802 27.1419V28.3494H206.376V27.1419H207.802ZM205.512 27.1419H204.086V28.3493H205.512V27.1419ZM205.512 29.605H204.086V30.8124H205.512V29.605ZM203.223 29.605V30.8124H201.797V29.605H203.223ZM203.223 27.1419V28.3493H201.797V27.1419H203.223ZM200.933 27.1419H199.507V28.3493H200.933V27.1419ZM200.933 29.605H199.507V30.8124H200.933V29.605ZM198.644 29.605V30.8124H197.218V29.605H198.644ZM198.644 27.1419V28.3493H197.218V27.1419H198.644ZM196.355 27.1419H194.929V28.3493H196.355V27.1419ZM196.355 29.605H194.929V30.8124H196.355V29.605ZM194.065 29.605V30.8124H192.639V29.605H194.065ZM194.065 27.1419V28.3493H192.639V27.1419H194.065ZM191.776 27.1419H190.35V28.3493H191.776V27.1419ZM191.776 29.605H190.35V30.8124H191.776V29.605ZM189.486 29.605V30.8124H188.061V29.605H189.486ZM189.486 27.1419V28.3493H188.061V27.1419H189.486ZM187.197 27.1419H185.771V28.3493H187.197V27.1419ZM187.197 29.605H185.771V30.8124H187.197V29.605ZM184.908 29.605V30.8124H183.482V29.605H184.908ZM184.908 27.1419V28.3493H183.482V27.1419H184.908ZM182.618 27.1419H181.192V28.3493H182.618V27.1419ZM182.618 29.605H181.192V30.8124H182.618V29.605ZM180.329 29.605V30.8124H178.903V29.605H180.329ZM180.329 27.1419V28.3493H178.903V27.1419H180.329ZM178.039 27.1419H176.614V28.3493H178.039V27.1419ZM178.039 29.605H176.614V30.8124H178.039V29.605ZM175.75 29.605V30.8124H174.324V29.605H175.75ZM175.75 27.1419V28.3493H174.324V27.1419H175.75ZM173.461 27.1419H172.035V28.3493H173.461V27.1419ZM173.461 29.605H172.035V30.8124H173.461V29.605ZM171.171 29.605V30.8124H169.745V29.605H171.171ZM171.171 27.1419V28.3493H169.745V27.1419H171.171ZM168.882 27.1419H167.456V28.3493H168.882V27.1419ZM168.882 29.605H167.456V30.8124H168.882V29.605ZM166.592 29.605V30.8124H165.167V29.605H166.592ZM166.592 27.1419V28.3493H165.167V27.1419H166.592ZM164.303 27.1419H162.877V28.3493H164.303V27.1419ZM164.303 29.605H162.877V30.8124H164.303V29.605ZM162.014 29.605V30.8124H160.588V29.605H162.014ZM162.014 27.1419V28.3493H160.588V27.1419H162.014ZM159.724 27.1419H158.298V28.3493H159.724V27.1419ZM159.724 29.605H158.298V30.8124H159.724V29.605ZM157.435 29.605V30.8124H156.009V29.605H157.435ZM157.435 27.1419V28.3493H156.009V27.1419H157.435ZM155.145 27.1419H153.72V28.3493H155.145V27.1419ZM155.145 29.605H153.72V30.8124H155.145V29.605ZM152.856 29.605V30.8124H151.43V29.605H152.856ZM152.856 27.1419V28.3493H151.43V27.1419H152.856ZM150.567 27.1419H149.141V28.3493H150.567V27.1419ZM150.567 29.605H149.141V30.8124H150.567V29.605ZM148.277 29.605V30.8124H146.851V29.605H148.277ZM148.277 27.1419V28.3493H146.851V27.1419H148.277ZM145.988 27.1419H144.562V28.3493H145.988V27.1419ZM145.988 29.605H144.562V30.8124H145.988V29.605ZM143.698 29.605V30.8124H142.273V29.605H143.698ZM143.698 27.1419V28.3493H142.273V27.1419H143.698Z" fill="#C4C4C4"/>
</g>
<defs>
<filter id="filter0_ii" x="-7.29547" y="-10" width="361.591" height="724.523" filterUnits="userSpaceOnUse" color-interpolation-filters="sRGB">
<feFlood flood-opacity="0" result="BackgroundImageFix"/>
<feBlend mode="normal" in="SourceGraphic" in2="BackgroundImageFix" result="shape"/>
<feColorMatrix in="SourceAlpha" type="matrix" values="0 0 0 0 0 0 0 0 0 0 0 0 0 0 0 0 0 0 127 0" result="hardAlpha"/>
<feOffset dx="-10" dy="-10"/>
<feGaussianBlur stdDeviation="10"/>
<feComposite in2="hardAlpha" operator="arithmetic" k2="-1" k3="1"/>
<feColorMatrix type="matrix" values="0 0 0 0 0 0 0 0 0 0 0 0 0 0 0 0 0 0 0.15 0"/>
<feBlend mode="normal" in2="shape" result="effect1_innerShadow"/>
<feColorMatrix in="SourceAlpha" type="matrix" values="0 0 0 0 0 0 0 0 0 0 0 0 0 0 0 0 0 0 127 0" result="hardAlpha"/>
<feOffset dy="4"/>
<feGaussianBlur stdDeviation="2"/>
<feComposite in2="hardAlpha" operator="arithmetic" k2="-1" k3="1"/>
<feColorMatrix type="matrix" values="0 0 0 0 0 0 0 0 0 0 0 0 0 0 0 0 0 0 0.07 0"/>
<feBlend mode="normal" in2="effect1_innerShadow" result="effect2_innerShadow"/>
</filter>
<filter id="filter1_i" x="0" y="95.4319" width="2.70455" height="32.9773" filterUnits="userSpaceOnUse" color-interpolation-filters="sRGB">
<feFlood flood-opacity="0" result="BackgroundImageFix"/>
<feBlend mode="normal" in="SourceGraphic" in2="BackgroundImageFix" result="shape"/>
<feColorMatrix in="SourceAlpha" type="matrix" values="0 0 0 0 0 0 0 0 0 0 0 0 0 0 0 0 0 0 127 0" result="hardAlpha"/>
<feOffset dy="4"/>
<feGaussianBlur stdDeviation="2"/>
<feComposite in2="hardAlpha" operator="arithmetic" k2="-1" k3="1"/>
<feColorMatrix type="matrix" values="0 0 0 0 0 0 0 0 0 0 0 0 0 0 0 0 0 0 0.25 0"/>
<feBlend mode="normal" in2="shape" result="effect1_innerShadow"/>
</filter>
<filter id="filter2_i" x="0" y="146.432" width="2.70455" height="56.1591" filterUnits="userSpaceOnUse" color-interpolation-filters="sRGB">
<feFlood flood-opacity="0" result="BackgroundImageFix"/>
<feBlend mode="normal" in="SourceGraphic" in2="BackgroundImageFix" result="shape"/>
<feColorMatrix in="SourceAlpha" type="matrix" values="0 0 0 0 0 0 0 0 0 0 0 0 0 0 0 0 0 0 127 0" result="hardAlpha"/>
<feOffset dy="4"/>
<feGaussianBlur stdDeviation="2"/>
<feComposite in2="hardAlpha" operator="arithmetic" k2="-1" k3="1"/>
<feColorMatrix type="matrix" values="0 0 0 0 0 0 0 0 0 0 0 0 0 0 0 0 0 0 0.25 0"/>
<feBlend mode="normal" in2="shape" result="effect1_innerShadow"/>
</filter>
<filter id="filter3_i" x="0" y="211.727" width="2.70455" height="55.7727" filterUnits="userSpaceOnUse" color-interpolation-filters="sRGB">
<feFlood flood-opacity="0" result="BackgroundImageFix"/>
<feBlend mode="normal" in="SourceGraphic" in2="BackgroundImageFix" result="shape"/>
<feColorMatrix in="SourceAlpha" type="matrix" values="0 0 0 0 0 0 0 0 0 0 0 0 0 0 0 0 0 0 127 0" result="hardAlpha"/>
<feOffset dy="4"/>
<feGaussianBlur stdDeviation="2"/>
<feComposite in2="hardAlpha" operator="arithmetic" k2="-1" k3="1"/>
<feColorMatrix type="matrix" values="0 0 0 0 0 0 0 0 0 0 0 0 0 0 0 0 0 0 0.25 0"/>
<feBlend mode="normal" in2="shape" result="effect1_innerShadow"/>
</filter>
<filter id="filter4_i" x="354.295" y="163.818" width="2.70455" height="86.6818" filterUnits="userSpaceOnUse" color-interpolation-filters="sRGB">
<feFlood flood-opacity="0" result="BackgroundImageFix"/>
<feBlend mode="normal" in="SourceGraphic" in2="BackgroundImageFix" result="shape"/>
<feColorMatrix in="SourceAlpha" type="matrix" values="0 0 0 0 0 0 0 0 0 0 0 0 0 0 0 0 0 0 127 0" result="hardAlpha"/>
<feOffset dy="4"/>
<feGaussianBlur stdDeviation="2"/>
<feComposite in2="hardAlpha" operator="arithmetic" k2="-1" k3="1"/>
<feColorMatrix type="matrix" values="0 0 0 0 0 0 0 0 0 0 0 0 0 0 0 0 0 0 0.25 0"/>
<feBlend mode="normal" in2="shape" result="effect1_innerShadow"/>
</filter>
<linearGradient id="paint0_linear" x1="178.693" y1="21.25" x2="178.693" y2="689.273" gradientUnits="userSpaceOnUse">
<stop stop-color="white"/>
<stop offset="1" stop-color="white" stop-opacity="0"/>
</linearGradient>
<radialGradient id="paint1_radial" cx="0" cy="0" r="1" gradientUnits="userSpaceOnUse" gradientTransform="translate(214.704 28.5758) rotate(69.9659) scale(3.71739)">
<stop stop-color="#A792FE"/>
<stop offset="1" stop-color="#141023"/>
</radialGradient>
</defs>
</svg>
