<svg width="70" height="171" viewBox="0 0 70 171" fill="none" xmlns="http://www.w3.org/2000/svg">
<path fill-rule="evenodd" clip-rule="evenodd" d="M15 73.1241C6.72938 73.1241 0 66.3882 0 58.1082V44.0307C0 36.0685 6.22875 29.551 14.0625 29.0625V20.4057V18.0666V15.2935C14.0625 13.4588 15.5531 11.9663 17.3859 11.9663C19.2188 11.9663 20.7094 13.4588 20.7094 15.2935V19.6932V20.4057V24.8044C20.7094 25.6041 21.3591 26.2547 22.1578 26.2547C22.9566 26.2547 23.6063 25.6041 23.6063 24.8044V19.8535V19.6932V0.939414C23.6063 0.420977 24.0263 0.000976562 24.5438 0.000976562C25.0613 0.000976562 25.4813 0.420977 25.4813 0.939414V19.6932V19.8535V24.8044C25.4813 26.6391 23.9897 28.1316 22.1578 28.1316C20.325 28.1316 18.8344 26.6391 18.8344 24.8044V20.4057V19.6932V15.2935C18.8344 14.4938 18.1847 13.8432 17.3859 13.8432C16.5872 13.8432 15.9375 14.4938 15.9375 15.2935V18.0666V20.4057V29.0625C23.7712 29.551 30 36.0685 30 44.0307V58.1082C30 66.3882 23.2706 73.1241 15 73.1241ZM28.125 44.0307C28.125 36.9282 22.4625 31.1391 15.4209 30.9132C15.2925 30.9788 15.1538 31.0248 15 31.0248C14.8462 31.0248 14.7075 30.9788 14.5791 30.9132C7.5375 31.1391 1.875 36.9282 1.875 44.0307V47.1601H28.125V44.0307ZM28.125 49.0369H1.875V58.1082C1.875 65.3532 7.7625 71.2472 15 71.2472C22.2375 71.2472 28.125 65.3532 28.125 58.1082V49.0369ZM15 36.0544C15.5175 36.0544 15.9375 36.4754 15.9375 36.9929V42.7801C15.9375 43.2985 15.5175 43.7194 15 43.7194C14.4825 43.7194 14.0625 43.2985 14.0625 42.7801V36.9929C14.0625 36.4754 14.4825 36.0544 15 36.0544Z" fill="#353535"/>
</svg>
