<svg width="80" height="96" viewBox="0 0 80 96" fill="none" xmlns="http://www.w3.org/2000/svg">
<path fill-rule="evenodd" clip-rule="evenodd" d="M41.9159 27.4362L38.3941 30.9956C38.3941 30.9956 38.3941 30.9965 38.3932 30.9965C38.3932 30.9975 38.3922 30.9975 38.3922 30.9984L14.27 55.3754C13.4822 56.1717 6.20827 58.4205 4.41823 58.4205C4.12303 58.4205 3.69244 58.382 3.37091 58.0586C2.99486 57.6778 2.56897 57.2472 4.0356 52.2626C4.35054 51.1918 5.42513 47.6484 6.02494 47.0429L33.6708 19.1037C34.3759 18.3911 35.3133 17.999 36.3089 17.999C37.3054 17.999 38.2418 18.392 38.9469 19.1037L41.9159 22.1037C42.621 22.8154 43.0093 23.763 43.0093 24.7699C43.0093 25.7778 42.621 26.7245 41.9159 27.4362ZM4.91846 56.4914C6.05603 56.3297 8.12811 55.7383 9.90122 55.1601L6.23184 51.4513C5.65553 53.2836 5.07734 55.4149 4.91846 56.4914ZM6.90303 49.4637L11.8651 54.4785C12.4123 54.2735 12.8241 54.1005 12.9952 53.9971L36.4142 30.3299L30.8071 24.6637L7.38814 48.3318C7.26874 48.5274 7.09858 48.9363 6.90303 49.4637ZM40.597 23.4369L37.628 20.4369C36.9229 19.7242 35.6951 19.7252 34.99 20.4369L32.1263 23.3306L37.7333 28.9969L40.597 26.1031C40.9495 25.7468 41.1441 25.2739 41.1441 24.77C41.1441 24.267 40.9495 23.7932 40.597 23.4369ZM39.0787 32.7321C39.4434 32.3635 40.0329 32.3635 40.3977 32.7321C40.7625 33.1006 40.7625 33.6967 40.3977 34.0652L32.2118 42.3375C32.0295 42.5218 31.7907 42.6139 31.5519 42.6139C31.3131 42.6139 31.0743 42.5218 30.8928 42.3375C30.528 41.969 30.528 41.3729 30.8928 41.0044L39.0787 32.7321Z" fill="#353535"/>
</svg>
