<svg width="65" height="99" viewBox="0 0 65 99" fill="none" xmlns="http://www.w3.org/2000/svg">
<path fill-rule="evenodd" clip-rule="evenodd" d="M35.0324 48.5822H24.9676C19.4716 48.5822 15 44.4093 15 39.2792V9.30297C15 4.1729 19.4716 0 24.9676 0H35.0324C40.5294 0 45 4.1729 45 9.30297V39.2792C45 44.4093 40.5294 48.5822 35.0324 48.5822ZM24.9677 46.5148H35.0324C39.4028 46.5148 42.9575 43.2681 42.9575 39.2792V37.709H17.0426V39.2792C17.0426 43.2681 20.5984 46.5148 24.9677 46.5148ZM17.0426 35.6417H42.9575V9.30293H17.0426V35.6417ZM35.0326 2.06733H24.9678C21.3851 2.06733 18.3534 4.25043 17.3766 7.23565H42.6238C41.647 4.25043 38.6152 2.06733 35.0326 2.06733ZM34.344 43.2412H25.655V41.1739H34.344V43.2412Z" fill="#353535"/>
</svg>
